<?xml version="1.0" encoding="UTF-8"?>
<!DOCTYPE svg PUBLIC "-//W3C//DTD SVG 1.1//EN" "http://www.w3.org/Graphics/SVG/1.1/DTD/svg11.dtd">
<svg width="160mm" height="90mm" viewBox="0 0 16000 9000" version="1.1" xmlns="http://www.w3.org/2000/svg" xmlns:xlink="http://www.w3.org/1999/xlink" stroke-width="28.222" stroke-linejoin="round" xml:space="preserve">
 <path fill="rgb(255,255,255)" stroke="none" d="M 7994,9004 L 0,9004 0,0 15988,0 15988,9004 7994,9004 Z"/>
 <path fill="none" stroke="rgb(179,179,179)" stroke-linejoin="round" d="M 8859,7394 L 2607,7394 2607,380 15111,380 15111,7394 8859,7394 Z"/>
 <path fill="none" stroke="rgb(179,179,179)" stroke-linejoin="round" d="M 15111,7393 L 2607,7393"/>
 <path fill="none" stroke="rgb(179,179,179)" stroke-linejoin="round" d="M 15111,6223 L 2607,6223"/>
 <path fill="none" stroke="rgb(179,179,179)" stroke-linejoin="round" d="M 15111,5054 L 2607,5054"/>
 <path fill="none" stroke="rgb(179,179,179)" stroke-linejoin="round" d="M 15111,3886 L 2607,3886"/>
 <path fill="none" stroke="rgb(179,179,179)" stroke-linejoin="round" d="M 15111,2717 L 2607,2717"/>
 <path fill="none" stroke="rgb(179,179,179)" stroke-linejoin="round" d="M 15111,1548 L 2607,1548"/>
 <path fill="none" stroke="rgb(179,179,179)" stroke-linejoin="round" d="M 15111,379 L 2607,379"/>
 <path fill="none" stroke="rgb(179,179,179)" stroke-linejoin="round" d="M 2607,7543 L 2607,7393"/>
 <path fill="none" stroke="rgb(179,179,179)" stroke-linejoin="round" d="M 2607,7543 L 2607,7393"/>
 <path fill="none" stroke="rgb(179,179,179)" stroke-linejoin="round" d="M 4393,7543 L 4393,7393"/>
 <path fill="none" stroke="rgb(179,179,179)" stroke-linejoin="round" d="M 4393,7543 L 4393,7393"/>
 <path fill="none" stroke="rgb(179,179,179)" stroke-linejoin="round" d="M 6179,7543 L 6179,7393"/>
 <path fill="none" stroke="rgb(179,179,179)" stroke-linejoin="round" d="M 6179,7543 L 6179,7393"/>
 <path fill="none" stroke="rgb(179,179,179)" stroke-linejoin="round" d="M 7966,7543 L 7966,7393"/>
 <path fill="none" stroke="rgb(179,179,179)" stroke-linejoin="round" d="M 7966,7543 L 7966,7393"/>
 <path fill="none" stroke="rgb(179,179,179)" stroke-linejoin="round" d="M 9751,7543 L 9751,7393"/>
 <path fill="none" stroke="rgb(179,179,179)" stroke-linejoin="round" d="M 9751,7543 L 9751,7393"/>
 <path fill="none" stroke="rgb(179,179,179)" stroke-linejoin="round" d="M 11538,7543 L 11538,7393"/>
 <path fill="none" stroke="rgb(179,179,179)" stroke-linejoin="round" d="M 11538,7543 L 11538,7393"/>
 <path fill="none" stroke="rgb(179,179,179)" stroke-linejoin="round" d="M 13324,7543 L 13324,7393"/>
 <path fill="none" stroke="rgb(179,179,179)" stroke-linejoin="round" d="M 13324,7543 L 13324,7393"/>
 <path fill="none" stroke="rgb(179,179,179)" stroke-linejoin="round" d="M 15111,7543 L 15111,7393"/>
 <path fill="none" stroke="rgb(179,179,179)" stroke-linejoin="round" d="M 15111,7543 L 15111,7393"/>
 <path fill="none" stroke="rgb(179,179,179)" stroke-linejoin="round" d="M 2607,7393 L 15111,7393"/>
 <path fill="none" stroke="rgb(179,179,179)" stroke-linejoin="round" d="M 2457,7393 L 2607,7393"/>
 <path fill="none" stroke="rgb(179,179,179)" stroke-linejoin="round" d="M 2457,7393 L 2607,7393"/>
 <path fill="none" stroke="rgb(179,179,179)" stroke-linejoin="round" d="M 2457,6223 L 2607,6223"/>
 <path fill="none" stroke="rgb(179,179,179)" stroke-linejoin="round" d="M 2457,6223 L 2607,6223"/>
 <path fill="none" stroke="rgb(179,179,179)" stroke-linejoin="round" d="M 2457,5054 L 2607,5054"/>
 <path fill="none" stroke="rgb(179,179,179)" stroke-linejoin="round" d="M 2457,5054 L 2607,5054"/>
 <path fill="none" stroke="rgb(179,179,179)" stroke-linejoin="round" d="M 2457,3886 L 2607,3886"/>
 <path fill="none" stroke="rgb(179,179,179)" stroke-linejoin="round" d="M 2457,3886 L 2607,3886"/>
 <path fill="none" stroke="rgb(179,179,179)" stroke-linejoin="round" d="M 2457,2717 L 2607,2717"/>
 <path fill="none" stroke="rgb(179,179,179)" stroke-linejoin="round" d="M 2457,2717 L 2607,2717"/>
 <path fill="none" stroke="rgb(179,179,179)" stroke-linejoin="round" d="M 2457,1548 L 2607,1548"/>
 <path fill="none" stroke="rgb(179,179,179)" stroke-linejoin="round" d="M 2457,1548 L 2607,1548"/>
 <path fill="none" stroke="rgb(179,179,179)" stroke-linejoin="round" d="M 2457,379 L 2607,379"/>
 <path fill="none" stroke="rgb(179,179,179)" stroke-linejoin="round" d="M 2457,379 L 2607,379"/>
 <path fill="none" stroke="rgb(179,179,179)" stroke-linejoin="round" d="M 2607,7393 L 2607,379"/>
 <path fill="none" stroke="rgb(255,66,14)" stroke-width="80" stroke-linejoin="round" d="M 4750,7389 L 6179,7378 7609,7353 9037,7308 10466,7238 11895,7137 13324,7001"/>
 <path fill="rgb(255,66,14)" stroke="none" d="M 4625,7389 L 4750,7514 4875,7389 4750,7264 4625,7389 Z"/>
 <path fill="none" stroke="rgb(255,66,14)" stroke-linejoin="round" d="M 4625,7389 L 4750,7514 4875,7389 4750,7264 4625,7389 Z"/>
 <path fill="rgb(255,66,14)" stroke="none" d="M 6054,7378 L 6179,7503 6304,7378 6179,7253 6054,7378 Z"/>
 <path fill="none" stroke="rgb(255,66,14)" stroke-linejoin="round" d="M 6054,7378 L 6179,7503 6304,7378 6179,7253 6054,7378 Z"/>
 <path fill="rgb(255,66,14)" stroke="none" d="M 7484,7353 L 7609,7478 7734,7353 7609,7228 7484,7353 Z"/>
 <path fill="none" stroke="rgb(255,66,14)" stroke-linejoin="round" d="M 7484,7353 L 7609,7478 7734,7353 7609,7228 7484,7353 Z"/>
 <path fill="rgb(255,66,14)" stroke="none" d="M 8912,7308 L 9037,7433 9162,7308 9037,7183 8912,7308 Z"/>
 <path fill="none" stroke="rgb(255,66,14)" stroke-linejoin="round" d="M 8912,7308 L 9037,7433 9162,7308 9037,7183 8912,7308 Z"/>
 <path fill="rgb(255,66,14)" stroke="none" d="M 10341,7238 L 10466,7363 10591,7238 10466,7113 10341,7238 Z"/>
 <path fill="none" stroke="rgb(255,66,14)" stroke-linejoin="round" d="M 10341,7238 L 10466,7363 10591,7238 10466,7113 10341,7238 Z"/>
 <path fill="rgb(255,66,14)" stroke="none" d="M 11770,7137 L 11895,7262 12020,7137 11895,7012 11770,7137 Z"/>
 <path fill="none" stroke="rgb(255,66,14)" stroke-linejoin="round" d="M 11770,7137 L 11895,7262 12020,7137 11895,7012 11770,7137 Z"/>
 <path fill="rgb(255,66,14)" stroke="none" d="M 13199,7001 L 13324,7126 13449,7001 13324,6876 13199,7001 Z"/>
 <path fill="none" stroke="rgb(255,66,14)" stroke-linejoin="round" d="M 13199,7001 L 13324,7126 13449,7001 13324,6876 13199,7001 Z"/>
 <path fill="none" stroke="rgb(0,69,134)" stroke-width="80" stroke-linejoin="round" d="M 4750,7390 L 6179,7375 7609,7324 9037,6988 10466,6164 11895,4412 13324,1630"/>
 <path fill="rgb(0,69,134)" stroke="none" d="M 4625,7265 L 4625,7515 4875,7515 4875,7265 4625,7265 Z"/>
 <path fill="none" stroke="rgb(0,69,134)" stroke-linejoin="round" d="M 4625,7265 L 4625,7515 4875,7515 4875,7265 4625,7265 Z"/>
 <path fill="rgb(0,69,134)" stroke="none" d="M 6054,7250 L 6054,7500 6304,7500 6304,7250 6054,7250 Z"/>
 <path fill="none" stroke="rgb(0,69,134)" stroke-linejoin="round" d="M 6054,7250 L 6054,7500 6304,7500 6304,7250 6054,7250 Z"/>
 <path fill="rgb(0,69,134)" stroke="none" d="M 7484,7199 L 7484,7449 7734,7449 7734,7199 7484,7199 Z"/>
 <path fill="none" stroke="rgb(0,69,134)" stroke-linejoin="round" d="M 7484,7199 L 7484,7449 7734,7449 7734,7199 7484,7199 Z"/>
 <path fill="rgb(0,69,134)" stroke="none" d="M 8912,6863 L 8912,7113 9162,7113 9162,6863 8912,6863 Z"/>
 <path fill="none" stroke="rgb(0,69,134)" stroke-linejoin="round" d="M 8912,6863 L 8912,7113 9162,7113 9162,6863 8912,6863 Z"/>
 <path fill="rgb(0,69,134)" stroke="none" d="M 10341,6039 L 10341,6289 10591,6289 10591,6039 10341,6039 Z"/>
 <path fill="none" stroke="rgb(0,69,134)" stroke-linejoin="round" d="M 10341,6039 L 10341,6289 10591,6289 10591,6039 10341,6039 Z"/>
 <path fill="rgb(0,69,134)" stroke="none" d="M 11770,4287 L 11770,4536 12020,4536 12020,4287 11770,4287 Z"/>
 <path fill="none" stroke="rgb(0,69,134)" stroke-linejoin="round" d="M 11770,4287 L 11770,4536 12020,4536 12020,4287 11770,4287 Z"/>
 <path fill="rgb(0,69,134)" stroke="none" d="M 13199,1505 L 13199,1755 13449,1755 13449,1505 13199,1505 Z"/>
 <path fill="none" stroke="rgb(0,69,134)" stroke-linejoin="round" d="M 13199,1505 L 13199,1755 13449,1755 13449,1505 13199,1505 Z"/>
 <text class="SVGTextShape"><tspan class="TextParagraph" font-family="Liberation Sans, sans-serif" font-size="353px" font-weight="400"><tspan class="TextPosition" x="2514" y="7961"><tspan fill="rgb(0,0,0)" stroke="none">0</tspan></tspan></tspan></text>
 <text class="SVGTextShape"><tspan class="TextParagraph" font-family="Liberation Sans, sans-serif" font-size="353px" font-weight="400"><tspan class="TextPosition" x="4115" y="7961"><tspan fill="rgb(0,0,0)" stroke="none">500</tspan></tspan></tspan></text>
 <text class="SVGTextShape"><tspan class="TextParagraph" font-family="Liberation Sans, sans-serif" font-size="353px" font-weight="400"><tspan class="TextPosition" x="5808" y="7961"><tspan fill="rgb(0,0,0)" stroke="none">1000</tspan></tspan></tspan></text>
 <text class="SVGTextShape"><tspan class="TextParagraph" font-family="Liberation Sans, sans-serif" font-size="353px" font-weight="400"><tspan class="TextPosition" x="7595" y="7961"><tspan fill="rgb(0,0,0)" stroke="none">1500</tspan></tspan></tspan></text>
 <text class="SVGTextShape"><tspan class="TextParagraph" font-family="Liberation Sans, sans-serif" font-size="353px" font-weight="400"><tspan class="TextPosition" x="9381" y="7961"><tspan fill="rgb(0,0,0)" stroke="none">2000</tspan></tspan></tspan></text>
 <text class="SVGTextShape"><tspan class="TextParagraph" font-family="Liberation Sans, sans-serif" font-size="353px" font-weight="400"><tspan class="TextPosition" x="11168" y="7961"><tspan fill="rgb(0,0,0)" stroke="none">2500</tspan></tspan></tspan></text>
 <text class="SVGTextShape"><tspan class="TextParagraph" font-family="Liberation Sans, sans-serif" font-size="353px" font-weight="400"><tspan class="TextPosition" x="12954" y="7961"><tspan fill="rgb(0,0,0)" stroke="none">3000</tspan></tspan></tspan></text>
 <text class="SVGTextShape"><tspan class="TextParagraph" font-family="Liberation Sans, sans-serif" font-size="353px" font-weight="400"><tspan class="TextPosition" x="14741" y="7961"><tspan fill="rgb(0,0,0)" stroke="none">3500</tspan></tspan></tspan></text>
 <text class="SVGTextShape"><tspan class="TextParagraph" font-family="Liberation Sans, sans-serif" font-size="353px" font-weight="400"><tspan class="TextPosition" x="2172" y="7514"><tspan fill="rgb(0,0,0)" stroke="none">0</tspan></tspan></tspan></text>
 <text class="SVGTextShape"><tspan class="TextParagraph" font-family="Liberation Sans, sans-serif" font-size="353px" font-weight="400"><tspan class="TextPosition" x="320" y="6344"><tspan fill="rgb(0,0,0)" stroke="none">20000000000</tspan></tspan></tspan></text>
 <text class="SVGTextShape"><tspan class="TextParagraph" font-family="Liberation Sans, sans-serif" font-size="353px" font-weight="400"><tspan class="TextPosition" x="320" y="5175"><tspan fill="rgb(0,0,0)" stroke="none">40000000000</tspan></tspan></tspan></text>
 <text class="SVGTextShape"><tspan class="TextParagraph" font-family="Liberation Sans, sans-serif" font-size="353px" font-weight="400"><tspan class="TextPosition" x="320" y="4006"><tspan fill="rgb(0,0,0)" stroke="none">60000000000</tspan></tspan></tspan></text>
 <text class="SVGTextShape"><tspan class="TextParagraph" font-family="Liberation Sans, sans-serif" font-size="353px" font-weight="400"><tspan class="TextPosition" x="320" y="2837"><tspan fill="rgb(0,0,0)" stroke="none">80000000000</tspan></tspan></tspan></text>
 <text class="SVGTextShape"><tspan class="TextParagraph" font-family="Liberation Sans, sans-serif" font-size="353px" font-weight="400"><tspan class="TextPosition" x="134" y="1668"><tspan fill="rgb(0,0,0)" stroke="none">100000000000</tspan></tspan></tspan></text>
 <text class="SVGTextShape"><tspan class="TextParagraph" font-family="Liberation Sans, sans-serif" font-size="353px" font-weight="400"><tspan class="TextPosition" x="134" y="499"><tspan fill="rgb(0,0,0)" stroke="none">120000000000</tspan></tspan></tspan></text>
 <path fill="none" stroke="rgb(0,69,134)" stroke-width="80" stroke-linejoin="round" d="M 996,8703 L 1796,8703"/>
 <path fill="rgb(0,69,134)" stroke="none" d="M 1290,8598 L 1290,8809 1501,8809 1501,8598 1290,8598 Z"/>
 <path fill="none" stroke="rgb(0,69,134)" stroke-linejoin="round" d="M 1290,8598 L 1290,8809 1501,8809 1501,8598 1290,8598 Z"/>
 <path fill="none" stroke="rgb(255,66,14)" stroke-width="80" stroke-linejoin="round" d="M 7739,8703 L 8538,8703"/>
 <path fill="rgb(255,66,14)" stroke="none" d="M 8032,8703 L 8138,8809 8243,8703 8138,8598 8032,8703 Z"/>
 <path fill="none" stroke="rgb(255,66,14)" stroke-linejoin="round" d="M 8032,8703 L 8138,8809 8243,8703 8138,8598 8032,8703 Z"/>
 <text class="SVGTextShape"><tspan class="TextParagraph" font-family="Liberation Sans, sans-serif" font-size="353px" font-weight="400"><tspan class="TextPosition" x="1896" y="8823"><tspan fill="rgb(0,0,0)" stroke="none">Multiplication L2 Data Cache Misses</tspan></tspan></tspan></text>
 <text class="SVGTextShape"><tspan class="TextParagraph" font-family="Liberation Sans, sans-serif" font-size="353px" font-weight="400"><tspan class="TextPosition" x="8638" y="8823"><tspan fill="rgb(0,0,0)" stroke="none">Line Multiplication L2 Data Cache Misses</tspan></tspan></tspan></text>
</svg>